<svg width="513" height="513" viewBox="0 0 513 513" fill="none" xmlns="http://www.w3.org/2000/svg">
<rect y="0.00146484" width="512" height="512" rx="128" fill="url(#paint0_linear_2355_623)"/>
<mask id="mask0_2355_623" style="mask-type:alpha" maskUnits="userSpaceOnUse" x="0" y="0" width="513" height="512">
<rect x="512.002" width="512" height="512" rx="128" transform="rotate(90 512.002 0)" fill="#FC814A"/>
</mask>
<g mask="url(#mask0_2355_623)">
<rect x="1016.66" y="-95.2026" width="1487.14" height="453.415" rx="64" transform="rotate(131.743 1016.66 -95.2026)" fill="url(#paint1_radial_2355_623)"/>
<rect x="850.896" y="110.074" width="1487.14" height="453.415" rx="64" transform="rotate(131.743 850.896 110.074)" fill="url(#paint2_radial_2355_623)"/>
<rect x="771.659" y="-381.202" width="1487.14" height="522.454" rx="64" transform="rotate(131.743 771.659 -381.202)" fill="url(#paint3_radial_2355_623)"/>
</g>
<rect x="128" y="96" width="110" height="320" rx="55" fill="white"/>
<path d="M128 361C128 330.624 152.624 306 183 306H329C359.376 306 384 330.624 384 361C384 391.376 359.376 416 329 416H183C152.624 416 128 391.376 128 361Z" fill="#363636"/>
<path fill-rule="evenodd" clip-rule="evenodd" d="M128 361C128 391.376 152.624 416 183 416C213.376 416 238 391.376 238 361V306H183C152.624 306 128 330.624 128 361Z" fill="#7678ED"/>
<rect x="341" y="125.218" width="110" height="110" rx="36" transform="rotate(45 341 125.218)" fill="#FFD500"/>
<defs>
<linearGradient id="paint0_linear_2355_623" x1="256" y1="0.00146484" x2="256" y2="512.001" gradientUnits="userSpaceOnUse">
<stop stop-color="#FC814A"/>
<stop offset="1" stop-color="#FC814A"/>
</linearGradient>
<radialGradient id="paint1_radial_2355_623" cx="0" cy="0" r="1" gradientUnits="userSpaceOnUse" gradientTransform="translate(1760.23 131.505) rotate(90) scale(226.708 743.572)">
<stop stop-color="#FC5E17"/>
<stop offset="1" stop-color="#FC6F30" stop-opacity="0"/>
</radialGradient>
<radialGradient id="paint2_radial_2355_623" cx="0" cy="0" r="1" gradientUnits="userSpaceOnUse" gradientTransform="translate(1594.47 336.782) rotate(90) scale(226.708 743.572)">
<stop stop-color="#FC8049"/>
<stop offset="1" stop-color="#FC6F30" stop-opacity="0"/>
</radialGradient>
<radialGradient id="paint3_radial_2355_623" cx="0" cy="0" r="1" gradientUnits="userSpaceOnUse" gradientTransform="translate(1515.23 -119.974) rotate(90) scale(261.227 743.572)">
<stop stop-color="#FC9262"/>
<stop offset="1" stop-color="#FC6F30" stop-opacity="0"/>
</radialGradient>
</defs>
</svg>
