<svg xmlns="http://www.w3.org/2000/svg" width="155" height="60" fill="none" viewBox="0 0 155 60"><path fill="#A6A6A6" d="M127.803 10H27.2026C26.8359 10 26.4736 10 26.1079 10.002C25.8018 10.004 25.4981 10.0098 25.189 10.0147C24.5175 10.0226 23.8476 10.0817 23.1851 10.1914C22.5235 10.3035 21.8826 10.5149 21.2842 10.8184C20.6865 11.1245 20.1403 11.5222 19.6655 11.9971C19.1883 12.4706 18.7904 13.018 18.4873 13.6182C18.1834 14.2171 17.9726 14.8589 17.8623 15.5215C17.751 16.1832 17.6911 16.8525 17.6831 17.5235C17.6738 17.8301 17.6729 18.1377 17.668 18.4443V41.5586C17.6729 41.8691 17.6738 42.1699 17.6831 42.4805C17.6911 43.1514 17.751 43.8207 17.8623 44.4824C17.9723 45.1453 18.1831 45.7875 18.4873 46.3867C18.7903 46.9849 19.1882 47.5301 19.6655 48.001C20.1385 48.478 20.685 48.876 21.2842 49.1797C21.8826 49.484 22.5234 49.6967 23.1851 49.8105C23.8477 49.9194 24.5175 49.9785 25.189 49.9873C25.4981 49.9941 25.8018 49.998 26.1079 49.998C26.4736 50 26.836 50 27.2026 50H127.803C128.162 50 128.527 50 128.887 49.998C129.191 49.998 129.504 49.9941 129.809 49.9873C130.479 49.9789 131.147 49.9198 131.809 49.8105C132.472 49.6959 133.116 49.4833 133.717 49.1797C134.315 48.8758 134.861 48.4779 135.334 48.001C135.81 47.5282 136.209 46.9835 136.516 46.3867C136.818 45.7871 137.026 45.145 137.135 44.4824C137.246 43.8206 137.308 43.1515 137.32 42.4805C137.324 42.1699 137.324 41.8691 137.324 41.5586C137.332 41.1953 137.332 40.834 137.332 40.4648V19.5361C137.332 19.1699 137.332 18.8066 137.324 18.4443C137.324 18.1377 137.324 17.8301 137.32 17.5234C137.308 16.8524 137.246 16.1832 137.135 15.5214C137.026 14.8593 136.817 14.2175 136.516 13.6181C135.898 12.4152 134.92 11.436 133.717 10.8183C133.115 10.5156 132.472 10.3042 131.809 10.1913C131.148 10.0811 130.479 10.022 129.809 10.0146C129.504 10.0097 129.191 10.0038 128.887 10.0019C128.527 9.99988 128.162 9.99988 127.803 9.99988V10Z"/><path fill="#000" d="M26.1128 49.125C25.8081 49.125 25.5108 49.1211 25.2085 49.1143C24.5823 49.1062 23.9575 49.0516 23.3394 48.9512C22.763 48.8519 22.2046 48.6673 21.6826 48.4033C21.1655 48.1415 20.6938 47.7983 20.2856 47.3867C19.8716 46.98 19.5268 46.5083 19.2651 45.9902C19.0005 45.4688 18.8174 44.9099 18.7221 44.333C18.6192 43.7131 18.5636 43.0863 18.5556 42.458C18.5493 42.2471 18.541 41.5449 18.541 41.5449V18.4444C18.541 18.4444 18.5498 17.7529 18.5557 17.5498C18.5633 16.9225 18.6186 16.2967 18.7212 15.6777C18.8166 15.0993 18.9999 14.5388 19.2647 14.0156C19.5254 13.498 19.8682 13.0259 20.2798 12.6177C20.6909 12.2056 21.1641 11.8606 21.6821 11.5952C22.2029 11.3321 22.7602 11.1487 23.3355 11.0513C23.9557 10.9499 24.5826 10.895 25.211 10.8872L26.1133 10.875H128.882L129.795 10.8877C130.418 10.8951 131.039 10.9495 131.653 11.0503C132.234 11.149 132.798 11.3336 133.324 11.5982C134.362 12.133 135.207 12.9792 135.739 14.0181C136 14.5376 136.18 15.0935 136.274 15.667C136.378 16.291 136.436 16.9218 136.448 17.5542C136.451 17.8374 136.451 18.1416 136.451 18.4444C136.459 18.8194 136.459 19.1763 136.459 19.5361V40.4648C136.459 40.8281 136.459 41.1826 136.451 41.54C136.451 41.8652 136.451 42.1631 136.447 42.4697C136.436 43.0909 136.378 43.7104 136.276 44.3232C136.183 44.9043 136.001 45.4675 135.736 45.9932C135.473 46.5056 135.13 46.9733 134.721 47.3789C134.312 47.7927 133.84 48.138 133.321 48.4014C132.796 48.6674 132.234 48.8528 131.653 48.9512C131.035 49.0522 130.41 49.1067 129.784 49.1143C129.491 49.1211 129.185 49.125 128.887 49.125L127.803 49.127L26.1128 49.125Z"/><path fill="#fff" d="M42.4368 30.3007C42.4476 29.466 42.6693 28.6476 43.0813 27.9217C43.4934 27.1957 44.0823 26.5858 44.7934 26.1486C44.3417 25.5035 43.7457 24.9725 43.0529 24.598C42.3601 24.2234 41.5895 24.0156 40.8022 23.9909C39.123 23.8147 37.4951 24.9958 36.6393 24.9958C35.7671 24.9958 34.4496 24.0084 33.0308 24.0376C32.1132 24.0673 31.2188 24.3341 30.4349 24.8122C29.6511 25.2902 29.0044 25.9632 28.5579 26.7655C26.6239 30.1139 28.0665 35.035 29.9191 37.7416C30.846 39.0669 31.9293 40.5474 33.3468 40.4949C34.7338 40.4374 35.2519 39.6104 36.9262 39.6104C38.5849 39.6104 39.0709 40.4949 40.5172 40.4615C42.0055 40.4373 42.9433 39.1303 43.8377 37.7924C44.5036 36.848 45.0161 35.8043 45.3561 34.6999C44.4914 34.3341 43.7535 33.7219 43.2343 32.9396C42.7152 32.1574 42.4379 31.2395 42.4368 30.3007Z"/><path fill="#fff" d="M39.7052 22.2109C40.5167 21.2367 40.9166 19.9845 40.8197 18.7203C39.5799 18.8505 38.4347 19.4431 37.6122 20.3799C37.21 20.8376 36.902 21.37 36.7058 21.9468C36.5095 22.5235 36.4289 23.1333 36.4685 23.7413C37.0886 23.7477 37.7021 23.6132 38.2628 23.3482C38.8234 23.0831 39.3166 22.6942 39.7052 22.2109Z"/><path fill="#fff" d="M59.9702 37.1397H55.2368L54.1001 40.4961H52.0952L56.5786 28.0781H58.6616L63.145 40.4961H61.106L59.9702 37.1397ZM55.7271 35.5908H59.4791L57.6295 30.1436H57.5777L55.7271 35.5908Z"/><path fill="#fff" d="M72.8277 35.9697C72.8277 38.7832 71.3218 40.5908 69.0493 40.5908C68.4737 40.6209 67.9012 40.4883 67.3974 40.2082C66.8936 39.9281 66.4789 39.5117 66.2007 39.0068H66.1577V43.4912H64.2993V31.4424H66.0982V32.9483H66.1323C66.4233 32.4458 66.845 32.0316 67.3527 31.7498C67.8603 31.4679 68.4348 31.3289 69.0152 31.3477C71.313 31.3477 72.8277 33.1641 72.8277 35.9697ZM70.9175 35.9697C70.9175 34.1367 69.9702 32.9317 68.5249 32.9317C67.105 32.9317 66.1499 34.1621 66.1499 35.9697C66.1499 37.794 67.105 39.0156 68.5249 39.0156C69.9702 39.0156 70.9175 37.8194 70.9175 35.9697Z"/><path fill="#fff" d="M82.7925 35.9697C82.7925 38.7832 81.2866 40.5908 79.0142 40.5908C78.4385 40.6209 77.866 40.4883 77.3622 40.2082C76.8584 39.9281 76.4437 39.5117 76.1655 39.0068H76.1225V43.4912H74.2641V31.4424H76.063V32.9482H76.0971C76.3881 32.4458 76.8098 32.0316 77.3175 31.7497C77.8251 31.4679 78.3996 31.3289 78.98 31.3477C81.2778 31.3477 82.7925 33.1641 82.7925 35.9697ZM80.8823 35.9697C80.8823 34.1367 79.9351 32.9316 78.4898 32.9316C77.0698 32.9316 76.1148 34.1621 76.1148 35.9697C76.1148 37.794 77.0698 39.0156 78.4898 39.0156C79.9351 39.0156 80.8823 37.8193 80.8823 35.9697H80.8823Z"/><path fill="#fff" d="M89.3784 37.0361C89.5161 38.2676 90.7124 39.0761 92.3472 39.0761C93.9136 39.0761 95.0405 38.2675 95.0405 37.1572C95.0405 36.1933 94.3609 35.6162 92.7515 35.2207L91.1421 34.833C88.8618 34.2822 87.8032 33.2158 87.8032 31.4853C87.8032 29.3427 89.6704 27.871 92.3218 27.871C94.9458 27.871 96.7446 29.3427 96.8052 31.4853H94.9292C94.8169 30.246 93.7925 29.498 92.2954 29.498C90.7983 29.498 89.7739 30.2548 89.7739 31.3564C89.7739 32.2343 90.4282 32.7509 92.0288 33.1464L93.397 33.4823C95.9448 34.0849 97.0034 35.1083 97.0034 36.9247C97.0034 39.248 95.1528 40.703 92.2095 40.703C89.4555 40.703 87.5962 39.2821 87.4761 37.036L89.3784 37.0361Z"/><path fill="#fff" d="M101.014 29.2998V31.4424H102.736V32.9141H101.014V37.9053C101.014 38.6807 101.359 39.042 102.116 39.042C102.32 39.0384 102.524 39.0241 102.727 38.999V40.4619C102.387 40.5255 102.041 40.5543 101.695 40.5478C99.8618 40.5478 99.147 39.8593 99.147 38.1035V32.9141H97.8306V31.4424H99.147V29.2998H101.014Z"/><path fill="#fff" d="M103.733 35.9697C103.733 33.1211 105.411 31.3311 108.027 31.3311C110.652 31.3311 112.322 33.1211 112.322 35.9697C112.322 38.8262 110.661 40.6084 108.027 40.6084C105.394 40.6084 103.733 38.8262 103.733 35.9697ZM110.428 35.9697C110.428 34.0156 109.533 32.8623 108.027 32.8623C106.521 32.8623 105.627 34.0244 105.627 35.9697C105.627 37.9317 106.521 39.0762 108.027 39.0762C109.533 39.0762 110.428 37.9317 110.428 35.9697H110.428Z"/><path fill="#fff" d="M113.854 31.4424H115.626V32.9834H115.669C115.789 32.5021 116.071 32.0768 116.468 31.7789C116.865 31.481 117.352 31.3287 117.847 31.3476C118.061 31.3469 118.275 31.3702 118.484 31.417V33.1553C118.214 33.0726 117.932 33.0347 117.649 33.043C117.379 33.032 117.11 33.0796 116.86 33.1825C116.61 33.2854 116.385 33.4411 116.202 33.639C116.018 33.8369 115.879 34.0723 115.794 34.3289C115.71 34.5856 115.682 34.8575 115.712 35.126V40.4961H113.854L113.854 31.4424Z"/><path fill="#fff" d="M127.052 37.8369C126.802 39.4805 125.202 40.6084 123.154 40.6084C120.52 40.6084 118.885 38.8437 118.885 36.0127C118.885 33.1729 120.529 31.3311 123.076 31.3311C125.581 31.3311 127.156 33.0518 127.156 35.7969V36.4336H120.761V36.5459C120.732 36.8791 120.773 37.2148 120.884 37.5306C120.994 37.8464 121.17 38.1352 121.4 38.3778C121.631 38.6203 121.91 38.8111 122.22 38.9374C122.529 39.0637 122.863 39.1226 123.197 39.1103C123.636 39.1515 124.077 39.0498 124.453 38.8203C124.83 38.5909 125.123 38.246 125.288 37.8369L127.052 37.8369ZM120.77 35.1348H125.296C125.313 34.8352 125.268 34.5354 125.163 34.2541C125.058 33.9729 124.897 33.7164 124.688 33.5006C124.48 33.2849 124.229 33.1145 123.951 33.0003C123.674 32.8861 123.376 32.8305 123.076 32.8369C122.773 32.8351 122.473 32.8933 122.193 33.008C121.913 33.1227 121.658 33.2918 121.444 33.5054C121.23 33.7191 121.06 33.973 120.944 34.2527C120.828 34.5323 120.769 34.8321 120.77 35.1348V35.1348Z"/><path fill="#fff" d="M55.4942 18.731C55.8838 18.7031 56.2747 18.7619 56.6389 18.9033C57.003 19.0448 57.3312 19.2653 57.5997 19.5489C57.8683 19.8325 58.0706 20.1722 58.192 20.5435C58.3134 20.9148 58.3509 21.3083 58.3018 21.6959C58.3018 23.6021 57.2715 24.6979 55.4942 24.6979H53.3389V18.731H55.4942ZM54.2656 23.854H55.3906C55.6691 23.8707 55.9477 23.825 56.2062 23.7204C56.4647 23.6158 56.6967 23.4548 56.8852 23.2493C57.0737 23.0437 57.214 22.7987 57.2958 22.5321C57.3777 22.2655 57.3991 21.9839 57.3584 21.708C57.3961 21.4332 57.3726 21.1534 57.2895 20.8887C57.2063 20.6241 57.0657 20.3811 56.8776 20.1771C56.6896 19.9732 56.4587 19.8134 56.2017 19.7092C55.9446 19.6049 55.6676 19.5589 55.3906 19.5742H54.2656V23.854Z"/><path fill="#fff" d="M59.3487 22.4443C59.3203 22.1484 59.3542 21.8499 59.448 21.5678C59.5419 21.2857 59.6936 21.0264 59.8936 20.8064C60.0935 20.5864 60.3372 20.4107 60.6091 20.2904C60.8809 20.1701 61.1749 20.108 61.4722 20.108C61.7695 20.108 62.0634 20.1701 62.3353 20.2904C62.6071 20.4107 62.8509 20.5864 63.0508 20.8064C63.2507 21.0264 63.4025 21.2857 63.4963 21.5678C63.5902 21.8499 63.624 22.1484 63.5957 22.4443C63.6246 22.7406 63.5911 23.0396 63.4975 23.3221C63.4039 23.6046 63.2523 23.8644 63.0523 24.0848C62.8523 24.3052 62.6084 24.4814 62.3363 24.6019C62.0641 24.7225 61.7698 24.7847 61.4722 24.7847C61.1746 24.7847 60.8802 24.7225 60.6081 24.6019C60.336 24.4814 60.0921 24.3052 59.8921 24.0848C59.6921 23.8644 59.5404 23.6046 59.4468 23.3221C59.3533 23.0396 59.3198 22.7406 59.3487 22.4443ZM62.6817 22.4443C62.6817 21.4683 62.2432 20.8975 61.4737 20.8975C60.7012 20.8975 60.2667 21.4683 60.2667 22.4444C60.2667 23.4282 60.7012 23.9946 61.4737 23.9946C62.2432 23.9946 62.6817 23.4243 62.6817 22.4443H62.6817Z"/><path fill="#fff" d="M69.2412 24.6978H68.3194L67.3887 21.3813H67.3184L66.3916 24.6978H65.4785L64.2373 20.1948H65.1387L65.9453 23.6308H66.0118L66.9375 20.1948H67.7901L68.7159 23.6308H68.7862L69.5889 20.1948H70.4776L69.2412 24.6978Z"/><path fill="#fff" d="M71.5215 20.1948H72.377V20.9102H72.4434C72.556 20.6532 72.7461 20.4379 72.9869 20.2941C73.2278 20.1503 73.5075 20.0852 73.7871 20.1079C74.0062 20.0914 74.2262 20.1245 74.4308 20.2046C74.6354 20.2847 74.8194 20.4098 74.9691 20.5706C75.1188 20.7315 75.2303 20.9239 75.2955 21.1337C75.3607 21.3436 75.3779 21.5654 75.3457 21.7827V24.6977H74.4571V22.0059C74.4571 21.2822 74.1426 20.9224 73.4854 20.9224C73.3366 20.9154 73.1881 20.9408 73.0501 20.9966C72.912 21.0524 72.7877 21.1375 72.6855 21.2458C72.5834 21.3542 72.5059 21.4834 72.4584 21.6245C72.4109 21.7657 72.3944 21.9154 72.4102 22.0635V24.6978H71.5215L71.5215 20.1948Z"/><path fill="#fff" d="M76.7617 18.437H77.6504V24.6978H76.7617V18.437Z"/><path fill="#fff" d="M78.8858 22.4444C78.8575 22.1484 78.8914 21.8498 78.9852 21.5678C79.0791 21.2857 79.2309 21.0263 79.4308 20.8063C79.6308 20.5863 79.8745 20.4106 80.1464 20.2903C80.4183 20.17 80.7123 20.1079 81.0096 20.1079C81.3068 20.1079 81.6008 20.17 81.8727 20.2903C82.1446 20.4106 82.3883 20.5863 82.5883 20.8063C82.7882 21.0263 82.94 21.2857 83.0339 21.5678C83.1277 21.8498 83.1616 22.1484 83.1333 22.4444C83.1621 22.7406 83.1287 23.0396 83.035 23.3221C82.9414 23.6046 82.7897 23.8644 82.5897 24.0848C82.3897 24.3053 82.1458 24.4814 81.8737 24.6019C81.6015 24.7224 81.3072 24.7847 81.0096 24.7847C80.7119 24.7847 80.4176 24.7224 80.1454 24.6019C79.8733 24.4814 79.6294 24.3053 79.4294 24.0848C79.2294 23.8644 79.0777 23.6046 78.9841 23.3221C78.8904 23.0396 78.857 22.7406 78.8858 22.4444ZM82.2188 22.4444C82.2188 21.4683 81.7803 20.8975 81.0108 20.8975C80.2383 20.8975 79.8038 21.4683 79.8038 22.4444C79.8038 23.4283 80.2383 23.9947 81.0108 23.9947C81.7803 23.9946 82.2188 23.4243 82.2188 22.4444H82.2188Z"/><path fill="#fff" d="M84.0689 23.4243C84.0689 22.6138 84.6724 22.1465 85.7437 22.0801L86.9634 22.0098V21.6211C86.9634 21.1455 86.649 20.877 86.0415 20.877C85.5454 20.877 85.2017 21.0591 85.1031 21.3775H84.2427C84.3335 20.604 85.0611 20.1079 86.0826 20.1079C87.2115 20.1079 87.8482 20.6699 87.8482 21.6211V24.6978H86.9927V24.065H86.9224C86.7797 24.2919 86.5793 24.477 86.3417 24.6012C86.104 24.7254 85.8377 24.7843 85.5699 24.772C85.3808 24.7916 85.1898 24.7715 85.009 24.7128C84.8282 24.6541 84.6618 24.5581 84.5204 24.4312C84.379 24.3042 84.2657 24.149 84.188 23.9756C84.1102 23.8022 84.0696 23.6144 84.0689 23.4243ZM86.9634 23.0396V22.6631L85.8638 22.7334C85.2437 22.7749 84.9624 22.9858 84.9624 23.3828C84.9624 23.7881 85.314 24.0239 85.7974 24.0239C85.9391 24.0383 86.0821 24.024 86.2182 23.9819C86.3542 23.9398 86.4803 23.8708 86.5891 23.7789C86.6979 23.6871 86.7871 23.5743 86.8514 23.4473C86.9157 23.3203 86.9538 23.1816 86.9634 23.0396Z"/><path fill="#fff" d="M89.0161 22.4444C89.0161 21.0215 89.7476 20.1201 90.8853 20.1201C91.1667 20.1072 91.446 20.1746 91.6905 20.3145C91.935 20.4544 92.1347 20.661 92.2661 20.9101H92.3326V18.437H93.2212V24.6978H92.3697V23.9863H92.2994C92.1577 24.2338 91.9511 24.4378 91.7019 24.5763C91.4526 24.7148 91.1702 24.7825 90.8853 24.772C89.7398 24.772 89.0161 23.8706 89.0161 22.4444ZM89.9341 22.4444C89.9341 23.3994 90.3843 23.9741 91.1373 23.9741C91.8863 23.9741 92.3492 23.3911 92.3492 22.4483C92.3492 21.5098 91.8814 20.9185 91.1373 20.9185C90.3892 20.9185 89.9341 21.4971 89.9341 22.4444H89.9341Z"/><path fill="#fff" d="M96.898 22.4443C96.8697 22.1484 96.9035 21.8499 96.9974 21.5678C97.0912 21.2857 97.243 21.0264 97.4429 20.8064C97.6428 20.5864 97.8866 20.4107 98.1584 20.2904C98.4303 20.1701 98.7243 20.108 99.0215 20.108C99.3188 20.108 99.6128 20.1701 99.8846 20.2904C100.156 20.4107 100.4 20.5864 100.6 20.8064C100.8 21.0264 100.952 21.2857 101.046 21.5678C101.14 21.8499 101.173 22.1484 101.145 22.4443C101.174 22.7406 101.14 23.0396 101.047 23.3221C100.953 23.6046 100.802 23.8644 100.602 24.0848C100.402 24.3052 100.158 24.4814 99.8856 24.6019C99.6135 24.7225 99.3191 24.7847 99.0215 24.7847C98.7239 24.7847 98.4296 24.7225 98.1574 24.6019C97.8853 24.4814 97.6414 24.3052 97.4414 24.0848C97.2414 23.8644 97.0898 23.6046 96.9962 23.3221C96.9026 23.0396 96.8691 22.7406 96.898 22.4443ZM100.231 22.4443C100.231 21.4683 99.7925 20.8975 99.023 20.8975C98.2505 20.8975 97.816 21.4683 97.816 22.4444C97.816 23.4282 98.2506 23.9946 99.023 23.9946C99.7925 23.9946 100.231 23.4243 100.231 22.4443Z"/><path fill="#fff" d="M102.337 20.1948H103.193V20.9102H103.259C103.372 20.6532 103.562 20.4379 103.803 20.2941C104.044 20.1503 104.323 20.0852 104.603 20.1079C104.822 20.0914 105.042 20.1245 105.247 20.2046C105.451 20.2847 105.635 20.4098 105.785 20.5706C105.935 20.7315 106.046 20.9239 106.111 21.1337C106.177 21.3436 106.194 21.5654 106.162 21.7827V24.6977H105.273V22.0059C105.273 21.2822 104.959 20.9224 104.301 20.9224C104.153 20.9154 104.004 20.9408 103.866 20.9966C103.728 21.0524 103.604 21.1375 103.501 21.2458C103.399 21.3542 103.322 21.4834 103.274 21.6245C103.227 21.7657 103.21 21.9154 103.226 22.0635V24.6978H102.337V20.1948Z"/><path fill="#fff" d="M111.183 19.0737V20.2153H112.159V20.9639H111.183V23.2793C111.183 23.751 111.377 23.9575 111.82 23.9575C111.933 23.9572 112.046 23.9503 112.159 23.937V24.6773C111.999 24.7058 111.837 24.721 111.675 24.7227C110.687 24.7227 110.293 24.375 110.293 23.5068V20.9638H109.579V20.2153H110.293V19.0737H111.183Z"/><path fill="#fff" d="M113.373 18.437H114.253V20.9185H114.324C114.442 20.6591 114.637 20.4425 114.883 20.2982C115.129 20.1539 115.413 20.0888 115.697 20.1118C115.915 20.1 116.133 20.1364 116.335 20.2184C116.537 20.3004 116.719 20.4261 116.867 20.5864C117.015 20.7468 117.126 20.9378 117.192 21.146C117.258 21.3541 117.277 21.5742 117.248 21.7905V24.6978H116.358V22.0098C116.358 21.2905 116.023 20.9263 115.395 20.9263C115.242 20.9137 115.089 20.9347 114.945 20.9878C114.801 21.0408 114.671 21.1247 114.563 21.2334C114.455 21.3421 114.372 21.4732 114.32 21.6173C114.268 21.7614 114.248 21.9152 114.261 22.0679V24.6977H113.373L113.373 18.437Z"/><path fill="#fff" d="M122.429 23.4819C122.308 23.8935 122.047 24.2495 121.69 24.4876C121.334 24.7258 120.904 24.8309 120.478 24.7847C120.181 24.7925 119.887 24.7357 119.614 24.6182C119.342 24.5006 119.098 24.3252 118.9 24.1041C118.702 23.8829 118.555 23.6214 118.468 23.3376C118.381 23.0537 118.357 22.7544 118.398 22.4605C118.358 22.1656 118.383 21.8656 118.469 21.581C118.556 21.2963 118.702 21.0335 118.899 20.8105C119.096 20.5874 119.339 20.4092 119.61 20.288C119.882 20.1668 120.177 20.1054 120.474 20.1079C121.727 20.1079 122.483 20.9639 122.483 22.3779V22.688H119.303V22.7378C119.289 22.9031 119.31 23.0694 119.364 23.2261C119.418 23.3829 119.505 23.5266 119.618 23.6481C119.73 23.7695 119.867 23.866 120.02 23.9314C120.172 23.9968 120.337 24.0297 120.502 24.0278C120.715 24.0533 120.93 24.0151 121.121 23.9178C121.312 23.8206 121.469 23.6689 121.574 23.4819L122.429 23.4819ZM119.303 22.0308H121.578C121.589 21.8796 121.568 21.7278 121.517 21.5851C121.466 21.4424 121.386 21.3119 121.282 21.2021C121.177 21.0922 121.051 21.0054 120.911 20.9472C120.771 20.8891 120.621 20.8608 120.469 20.8643C120.316 20.8623 120.163 20.8912 120.021 20.9491C119.878 21.0071 119.749 21.0929 119.64 21.2017C119.532 21.3104 119.446 21.4397 119.388 21.5821C119.33 21.7245 119.301 21.8771 119.303 22.0308H119.303Z"/></svg>