<svg xmlns="http://www.w3.org/2000/svg" width="156" height="60" fill="none" viewBox="0 0 156 60"><path fill="#000" d="M140.738 50H15.7383C12.9883 50 10.7383 47.75 10.7383 45V15C10.7383 12.25 12.9883 10 15.7383 10H140.738C143.488 10 145.738 12.25 145.738 15V45C145.738 47.75 143.488 50 140.738 50Z"/><path fill="#A6A6A6" d="M140.738 10.8C143.058 10.8 144.938 12.68 144.938 15V45C144.938 47.32 143.058 49.2 140.738 49.2H15.7383C13.4183 49.2 11.5383 47.32 11.5383 45V15C11.5383 12.68 13.4183 10.8 15.7383 10.8H140.738ZM140.738 10H15.7383C12.9883 10 10.7383 12.25 10.7383 15V45C10.7383 47.75 12.9883 50 15.7383 50H140.738C143.488 50 145.738 47.75 145.738 45V15C145.738 12.25 143.488 10 140.738 10Z"/><path fill="#fff" stroke="#fff" stroke-miterlimit="10" stroke-width=".2" d="M58.1583 20.24C58.1583 21.08 57.9083 21.75 57.4083 22.24C56.8483 22.83 56.1083 23.13 55.2083 23.13C54.3383 23.13 53.6083 22.83 52.9983 22.23C52.3883 21.63 52.0883 20.88 52.0883 20C52.0883 19.11 52.3883 18.37 52.9983 17.77C53.6083 17.17 54.3383 16.87 55.2083 16.87C55.6383 16.87 56.0483 16.95 56.4383 17.12C56.8283 17.29 57.1383 17.51 57.3783 17.79L56.8483 18.32C56.4483 17.85 55.9083 17.61 55.2083 17.61C54.5783 17.61 54.0283 17.83 53.5683 18.28C53.1083 18.72 52.8783 19.3 52.8783 20.01C52.8783 20.72 53.1083 21.3 53.5683 21.74C54.0283 22.18 54.5783 22.41 55.2083 22.41C55.8783 22.41 56.4383 22.19 56.8883 21.74C57.1783 21.45 57.3483 21.04 57.3883 20.52H55.2083V19.8H58.1183C58.1383 19.95 58.1583 20.1 58.1583 20.24Z"/><path fill="#fff" stroke="#fff" stroke-miterlimit="10" stroke-width=".2" d="M62.7682 17.74H60.0382V19.64H62.4982V20.36H60.0382V22.26H62.7682V23H59.2682V17H62.7682V17.74Z"/><path fill="#fff" stroke="#fff" stroke-miterlimit="10" stroke-width=".2" d="M66.0183 23H65.2483V17.74H63.5683V17H67.6883V17.74H66.0083V23H66.0183Z"/><path fill="#fff" stroke="#fff" stroke-miterlimit="10" stroke-width=".2" d="M70.6783 23V17H71.4482V23H70.6783Z"/><path fill="#fff" stroke="#fff" stroke-miterlimit="10" stroke-width=".2" d="M74.8683 23H74.0983V17.74H72.4183V17H76.5383V17.74H74.8583V23H74.8683Z"/><path fill="#fff" stroke="#fff" stroke-miterlimit="10" stroke-width=".2" d="M84.3483 22.22C83.7583 22.83 83.0283 23.13 82.1483 23.13C81.2683 23.13 80.5383 22.83 79.9483 22.22C79.3583 21.61 79.0683 20.87 79.0683 20C79.0683 19.13 79.3583 18.38 79.9483 17.78C80.5383 17.17 81.2683 16.87 82.1483 16.87C83.0183 16.87 83.7483 17.17 84.3483 17.78C84.9383 18.39 85.2383 19.13 85.2383 20C85.2283 20.88 84.9383 21.62 84.3483 22.22ZM80.5183 21.72C80.9583 22.17 81.5083 22.39 82.1483 22.39C82.7883 22.39 83.3383 22.17 83.7783 21.72C84.2183 21.27 84.4483 20.7 84.4483 20C84.4483 19.3 84.2283 18.73 83.7783 18.28C83.3383 17.83 82.7883 17.61 82.1483 17.61C81.5083 17.61 80.9583 17.83 80.5183 18.28C80.0783 18.73 79.8483 19.3 79.8483 20C79.8483 20.7 80.0783 21.27 80.5183 21.72Z"/><path fill="#fff" stroke="#fff" stroke-miterlimit="10" stroke-width=".2" d="M86.3183 23V17H87.2583L90.1783 21.67H90.2083L90.1783 20.51V17H90.9483V23H90.1483L87.0983 18.11H87.0683L87.0983 19.27V23H86.3183Z"/><path fill="#fff" d="M78.8783 31.75C76.5282 31.75 74.6083 33.54 74.6083 36C74.6083 38.45 76.5282 40.25 78.8783 40.25C81.2283 40.25 83.1483 38.45 83.1483 36C83.1483 33.54 81.2283 31.75 78.8783 31.75ZM78.8783 38.58C77.5882 38.58 76.4782 37.52 76.4782 36C76.4782 34.47 77.5882 33.42 78.8783 33.42C80.1683 33.42 81.2783 34.47 81.2783 36C81.2783 37.52 80.1583 38.58 78.8783 38.58ZM69.5583 31.75C67.2083 31.75 65.2883 33.54 65.2883 36C65.2883 38.45 67.2083 40.25 69.5583 40.25C71.9083 40.25 73.8282 38.45 73.8282 36C73.8282 33.54 71.9083 31.75 69.5583 31.75ZM69.5583 38.58C68.2682 38.58 67.1582 37.52 67.1582 36C67.1582 34.47 68.2682 33.42 69.5583 33.42C70.8483 33.42 71.9583 34.47 71.9583 36C71.9583 37.52 70.8483 38.58 69.5583 38.58ZM58.4783 33.06V34.86H62.7983C62.6683 35.87 62.3283 36.62 61.8183 37.13C61.1883 37.76 60.2083 38.45 58.4883 38.45C55.8283 38.45 53.7482 36.31 53.7482 33.65C53.7482 30.99 55.8283 28.85 58.4883 28.85C59.9183 28.85 60.9683 29.41 61.7383 30.14L63.0083 28.87C61.9283 27.84 60.4983 27.05 58.4783 27.05C54.8383 27.05 51.7783 30.01 51.7783 33.66C51.7783 37.3 54.8383 40.27 58.4783 40.27C60.4483 40.27 61.9282 39.63 63.0882 38.42C64.2782 37.23 64.6483 35.55 64.6483 34.2C64.6483 33.78 64.6183 33.39 64.5483 33.07H58.4783V33.06ZM103.788 34.46C103.438 33.51 102.358 31.75 100.148 31.75C97.9583 31.75 96.1383 33.47 96.1383 36C96.1383 38.38 97.9383 40.25 100.358 40.25C102.308 40.25 103.438 39.06 103.898 38.37L102.448 37.4C101.968 38.11 101.308 38.58 100.358 38.58C99.4083 38.58 98.7282 38.14 98.2982 37.29L103.988 34.94L103.788 34.46ZM97.9883 35.88C97.9383 34.24 99.2583 33.4 100.208 33.4C100.948 33.4 101.578 33.77 101.788 34.3L97.9883 35.88ZM93.3682 40H95.2383V27.5H93.3682V40ZM90.3083 32.7H90.2383C89.8183 32.2 89.0183 31.75 87.9983 31.75C85.8683 31.75 83.9183 33.62 83.9183 36.02C83.9183 38.4 85.8683 40.26 87.9983 40.26C89.0083 40.26 89.8183 39.81 90.2383 39.29H90.2982V39.9C90.2982 41.53 89.4283 42.4 88.0283 42.4C86.8883 42.4 86.1783 41.58 85.8883 40.89L84.2582 41.57C84.7282 42.7 85.9683 44.08 88.0283 44.08C90.2183 44.08 92.0683 42.79 92.0683 39.65V32.01H90.2982V32.7H90.3083ZM88.1582 38.58C86.8682 38.58 85.7883 37.5 85.7883 36.02C85.7883 34.52 86.8682 33.43 88.1582 33.43C89.4282 33.43 90.4283 34.53 90.4283 36.02C90.4383 37.5 89.4382 38.58 88.1582 38.58ZM112.548 27.5H108.078V40H109.948V35.26H112.558C114.628 35.26 116.658 33.76 116.658 31.38C116.658 29 114.608 27.5 112.548 27.5ZM112.588 33.52H109.938V29.23H112.588C113.988 29.23 114.778 30.39 114.778 31.37C114.778 32.35 113.988 33.52 112.588 33.52ZM124.128 31.73C122.778 31.73 121.378 32.33 120.798 33.64L122.458 34.33C122.808 33.64 123.468 33.41 124.158 33.41C125.118 33.41 126.108 33.99 126.118 35.02V35.15C125.778 34.96 125.058 34.67 124.168 34.67C122.378 34.67 120.568 35.65 120.568 37.48C120.568 39.15 122.028 40.23 123.668 40.23C124.918 40.23 125.618 39.67 126.048 39.01H126.108V39.98H127.908V35.19C127.918 32.97 126.258 31.73 124.128 31.73ZM123.898 38.58C123.288 38.58 122.438 38.27 122.438 37.52C122.438 36.56 123.498 36.19 124.418 36.19C125.238 36.19 125.628 36.37 126.118 36.61C125.978 37.76 124.978 38.58 123.898 38.58ZM134.478 32L132.338 37.42H132.278L130.058 32H128.048L131.378 39.58L129.478 43.79H131.428L136.558 32H134.478ZM117.678 40H119.548V27.5H117.678V40Z"/><path fill="url(#paint0_linear_202_2)" d="M21.1783 17.54C20.8883 17.85 20.7183 18.33 20.7183 18.94V41.06C20.7183 41.68 20.8883 42.16 21.1783 42.46L21.2483 42.53L33.6383 30.15V30V29.85L21.2483 17.47L21.1783 17.54Z"/><path fill="url(#paint1_linear_202_2)" d="M37.7682 34.28L33.6383 30.15V30V29.85L37.7682 25.72L37.8582 25.77L42.7482 28.55C44.1482 29.34 44.1482 30.64 42.7482 31.44L37.8582 34.22L37.7682 34.28Z"/><path fill="url(#paint2_linear_202_2)" d="M37.8583 34.22L33.6383 30L21.1783 42.46C21.6383 42.95 22.3983 43.01 23.2583 42.52L37.8583 34.22Z"/><path fill="url(#paint3_linear_202_2)" d="M37.8582 25.78L23.2483 17.48C22.3883 16.99 21.6283 17.05 21.1683 17.54L33.6383 30L37.8582 25.78Z"/><path fill="#000" d="M37.7683 34.13L23.2483 42.38C22.4383 42.84 21.7083 42.81 21.2483 42.39L21.1783 42.46L21.2483 42.53C21.7183 42.95 22.4383 42.98 23.2483 42.52L37.8583 34.22L37.7683 34.13Z" opacity=".2"/><path fill="#000" d="M21.1783 42.32C20.8883 42.01 20.7183 41.53 20.7183 40.92V41.07C20.7183 41.69 20.8883 42.17 21.1783 42.47L21.2483 42.4L21.1783 42.32Z" opacity=".12"/><path fill="#000" d="M42.7483 31.3L37.7583 34.13L37.8483 34.22L42.7383 31.44C43.4383 31.04 43.7883 30.52 43.7883 30C43.7383 30.47 43.3883 30.94 42.7483 31.3Z" opacity=".12"/><path fill="#fff" d="M23.2483 17.62L42.7483 28.7C43.3783 29.06 43.7383 29.52 43.7983 30C43.7983 29.48 43.4483 28.95 42.7483 28.56L23.2483 17.48C21.8483 16.69 20.7083 17.35 20.7083 18.95V19.1C20.7083 17.49 21.8583 16.83 23.2483 17.62Z" opacity=".25"/><defs><linearGradient id="paint0_linear_202_2" x1="32.538" x2="15.756" y1="18.71" y2="35.492" gradientUnits="userSpaceOnUse"><stop stop-color="#00A0FF"/><stop offset=".007" stop-color="#00A1FF"/><stop offset=".26" stop-color="#00BEFF"/><stop offset=".512" stop-color="#00D2FF"/><stop offset=".76" stop-color="#00DFFF"/><stop offset="1" stop-color="#00E3FF"/></linearGradient><linearGradient id="paint1_linear_202_2" x1="44.573" x2="20.376" y1="30.001" y2="30.001" gradientUnits="userSpaceOnUse"><stop stop-color="#FFE000"/><stop offset=".409" stop-color="#FFBD00"/><stop offset=".775" stop-color="orange"/><stop offset="1" stop-color="#FF9C00"/></linearGradient><linearGradient id="paint2_linear_202_2" x1="35.565" x2="12.807" y1="32.296" y2="55.054" gradientUnits="userSpaceOnUse"><stop stop-color="#FF3A44"/><stop offset="1" stop-color="#C31162"/></linearGradient><linearGradient id="paint3_linear_202_2" x1="18.036" x2="28.198" y1="10.176" y2="20.339" gradientUnits="userSpaceOnUse"><stop stop-color="#32A071"/><stop offset=".069" stop-color="#2DA771"/><stop offset=".476" stop-color="#15CF74"/><stop offset=".801" stop-color="#06E775"/><stop offset="1" stop-color="#00F076"/></linearGradient></defs></svg>