<svg xmlns="http://www.w3.org/2000/svg" width="32" height="33" fill="none" viewBox="0 0 32 33"><g clip-path="url(#clip0)"><path fill="#4285F4" d="M32.0004 16.6988C32.0004 15.5891 31.9104 14.4735 31.7185 13.3818H16.3213V19.6679H25.1385C24.7726 21.6952 23.597 23.4887 21.8756 24.6283V28.707H27.1359C30.2249 25.8639 32.0004 21.6652 32.0004 16.6988Z"/><path fill="#34A853" d="M16.3208 32.648C20.7235 32.648 24.4363 31.2025 27.1415 28.7073L21.8811 24.6285C20.4176 25.6242 18.5282 26.188 16.3268 26.188C12.0682 26.188 8.4573 23.3149 7.1617 19.4521H1.7334V23.6568C4.50453 29.1691 10.1488 32.648 16.3208 32.648Z"/><path fill="#FFDC60" d="M7.15583 19.4518C6.47205 17.4244 6.47205 15.2291 7.15583 13.2018V8.99707H1.73353C-0.581749 13.6096 -0.581749 19.0439 1.73353 23.6565L7.15583 19.4518Z"/><path fill="#EA4335" d="M16.3208 6.4601C18.6481 6.42412 20.8974 7.29984 22.5829 8.90734L27.2434 4.2468C24.2924 1.47566 20.3756 -0.0478615 16.3208 0.000123486C10.1488 0.000123486 4.50453 3.47904 1.7334 8.99731L7.1557 13.202C8.4453 9.33321 12.0622 6.4601 16.3208 6.4601Z"/></g><defs><clipPath id="clip0"><rect width="32" height="32.648" fill="#fff"/></clipPath></defs></svg>