<svg xmlns="http://www.w3.org/2000/svg" width="1440" height="332" fill="none" viewBox="0 0 1440 332"><path stroke="url(#paint0_linear)" stroke-width="2" d="M-97 137C-53.6667 185.667 13 277 151 277C305 277 403 41 605 41C817 41 765 331 1053 331C1283.4 331 1315 41 1537 41"/><path stroke="url(#paint1_linear)" stroke-width="2" d="M-719 97C-675.667 145.667 -609 237 -471 237C-317 237 -219 1 -17 1C195 1 143 291 431 291C661.4 291 693 1 915 1"/><defs><linearGradient id="paint0_linear" x1="1397" x2="529.373" y1="30.903" y2="346.756" gradientUnits="userSpaceOnUse"><stop stop-color="#ECF2F6" stop-opacity="0"/><stop offset=".377" stop-color="#ECF2F6"/><stop offset="1" stop-color="#ECF2F6" stop-opacity="0"/></linearGradient><linearGradient id="paint1_linear" x1="775" x2="-92.627" y1="-9.097" y2="306.756" gradientUnits="userSpaceOnUse"><stop stop-color="#ECF2F6" stop-opacity="0"/><stop offset=".377" stop-color="#ECF2F6"/><stop offset="1" stop-color="#ECF2F6" stop-opacity="0"/></linearGradient></defs></svg>