<svg width="1131" height="323" viewBox="0 0 1131 323" fill="none" xmlns="http://www.w3.org/2000/svg">
<rect width="110" height="320" rx="55" fill="#FC814A"/>
<path d="M0 265C0 234.624 24.6243 210 55 210H201C231.376 210 256 234.624 256 265V265C256 295.376 231.376 320 201 320H55C24.6243 320 0 295.376 0 265V265Z" fill="#363636"/>
<path fill-rule="evenodd" clip-rule="evenodd" d="M0 265C0 295.376 24.6243 320 55 320C85.3757 320 110 295.376 110 265V210H55C24.6243 210 0 234.624 0 265Z" fill="#7678ED"/>
<rect x="213" y="29" width="110" height="110" rx="36" transform="rotate(45 213 29)" fill="#FFD500"/>
<path fill-rule="evenodd" clip-rule="evenodd" d="M1038.78 275C1063.08 275 1082.78 255.301 1082.78 231C1082.78 206.699 1063.08 187 1038.78 187C1014.48 187 994.782 206.699 994.782 231C994.782 255.301 1014.48 275 1038.78 275ZM1038.78 323C1089.59 323 1130.78 281.81 1130.78 231C1130.78 180.19 1089.59 139 1038.78 139C987.972 139 946.782 180.19 946.782 231C946.782 281.81 987.972 323 1038.78 323Z" fill="#363636"/>
<path fill-rule="evenodd" clip-rule="evenodd" d="M862.294 191C840.467 191 822.781 208.69 822.781 230.5C822.781 252.31 840.467 270 862.294 270C874.166 270 884.329 265.322 889.713 259.514C899.475 248.983 915.925 248.359 926.456 258.12C936.987 267.882 937.611 284.332 927.849 294.864C911.161 312.868 886.337 322 862.294 322C811.758 322 770.781 281.039 770.781 230.5C770.781 179.961 811.758 139 862.294 139C884.629 139 905.771 146.214 922.946 161.989L923.873 162.841L924.714 163.778C926.503 165.773 927.933 167.468 929.309 169.239C938.122 180.576 936.075 196.91 924.738 205.723C913.4 214.535 897.066 212.489 888.253 201.151C887.922 200.725 887.517 200.225 886.892 199.505C880.406 193.912 872.467 191 862.294 191Z" fill="#363636"/>
<rect x="386.781" y="15" width="66" height="304.975" rx="33" fill="#363636"/>
<rect x="479.781" y="165" width="66" height="155" rx="33" fill="#363636"/>
<circle cx="512.781" cy="105" r="36" fill="#363636"/>
<rect x="584.781" y="15" width="66" height="304.975" rx="33" fill="#363636"/>
<rect x="677.781" y="165" width="66" height="155" rx="33" fill="#363636"/>
<circle cx="710.781" cy="105" r="36" fill="#363636"/>
</svg>
